<svg width="1728" height="2698" viewBox="0 0 1728 2698" fill="none" xmlns="http://www.w3.org/2000/svg">
<rect width="1728" height="1043" fill="url(#paint0_linear_639_106)"/>
<rect y="1970" width="91" height="91" fill="#28567A"/>
<rect y="1242" width="91" height="91" fill="#28567A"/>
<rect y="2334" width="91" height="91" fill="#28567A"/>
<rect y="1606" width="91" height="91" fill="#28567A"/>
<rect y="1424" width="91" height="91" fill="#28567A"/>
<rect y="1788" width="91" height="91" fill="#28567A"/>
<rect y="1333" width="91" height="91" fill="#28567A"/>
<rect y="2425" width="91" height="91" fill="#28567A"/>
<rect y="1697" width="91" height="91" fill="#28567A"/>
<rect y="1515" width="91" height="91" fill="#2C5E86"/>
<rect y="1879" width="91" height="91" fill="#28567A"/>
<rect x="728" y="1970" width="91" height="91" fill="#28567A"/>
<rect x="728" y="1242" width="91" height="91" fill="#28567A"/>
<rect x="728" y="2334" width="91" height="91" fill="#28567A"/>
<rect x="728" y="1606" width="91" height="91" fill="#28567A"/>
<rect x="728" y="2152" width="91" height="91" fill="#28567A"/>
<rect x="728" y="1424" width="91" height="91" fill="#28567A"/>
<rect x="728" y="1788" width="91" height="91" fill="#28567A"/>
<rect x="728" y="2061" width="91" height="91" fill="#28567A"/>
<rect x="728" y="1333" width="91" height="91" fill="#28567A"/>
<rect x="728" y="1697" width="91" height="91" fill="#28567A"/>
<rect x="728" y="2243" width="91" height="91" fill="#28567A"/>
<rect x="728" y="1515" width="91" height="91" fill="#28567A"/>
<rect x="728" y="1879" width="91" height="91" fill="#28567A"/>
<rect x="364" y="1970" width="91" height="91" fill="#28567A"/>
<rect x="364" y="1242" width="91" height="91" fill="#28567A"/>
<rect x="364" y="1606" width="91" height="91" fill="#28567A"/>
<rect x="364" y="2152" width="91" height="91" fill="#28567A"/>
<rect x="364" y="1424" width="91" height="91" fill="#28567A"/>
<rect x="364" y="1788" width="91" height="91" fill="#28567A"/>
<rect x="364" y="2061" width="91" height="91" fill="#28567A"/>
<rect x="364" y="1333" width="91" height="91" fill="#28567A"/>
<rect x="364" y="2425" width="91" height="91" fill="#28567A"/>
<rect x="364" y="1697" width="91" height="91" fill="#28567A"/>
<rect x="364" y="2243" width="91" height="91" fill="#28567A"/>
<rect x="364" y="1515" width="91" height="91" fill="#28567A"/>
<rect x="364" y="1879" width="91" height="91" fill="#28567A"/>
<rect x="1091" y="1970" width="91" height="91" fill="#28567A"/>
<rect x="1091" y="1242" width="91" height="91" fill="#28567A"/>
<rect x="1091" y="1606" width="91" height="91" fill="#28567A"/>
<rect x="1091" y="2152" width="91" height="91" fill="#28567A"/>
<rect x="1091" y="1424" width="91" height="91" fill="#2C5E86"/>
<rect x="1091" y="1788" width="91" height="91" fill="#28567A"/>
<rect x="1091" y="2061" width="91" height="91" fill="#28567A"/>
<rect x="1091" y="1333" width="91" height="91" fill="#28567A"/>
<rect x="1091" y="2425" width="91" height="91" fill="#28567A"/>
<rect x="1091" y="1697" width="91" height="91" fill="#28567A"/>
<rect x="1091" y="2243" width="91" height="91" fill="#28567A"/>
<rect x="1091" y="1515" width="91" height="91" fill="#28567A"/>
<rect x="1091" y="1879" width="91" height="91" fill="#28567A"/>
<rect x="182" y="1970" width="91" height="91" fill="#28567A"/>
<rect x="182" y="1242" width="91" height="91" fill="#28567A"/>
<rect x="182" y="2334" width="91" height="91" fill="#28567A"/>
<rect x="182" y="1606" width="91" height="91" fill="#28567A"/>
<rect x="182" y="2152" width="91" height="91" fill="#28567A"/>
<rect x="182" y="1424" width="91" height="91" fill="#28567A"/>
<rect x="182" y="2516" width="91" height="91" fill="#28567A"/>
<rect x="182" y="1788" width="91" height="91" fill="#28567A"/>
<rect x="182" y="1333" width="91" height="91" fill="#2C5E86"/>
<rect x="182" y="2425" width="91" height="91" fill="#28567A"/>
<rect x="182" y="1697" width="91" height="91" fill="#28567A"/>
<rect x="182" y="2243" width="91" height="91" fill="#28567A"/>
<rect x="182" y="1515" width="91" height="91" fill="#28567A"/>
<rect x="182" y="1879" width="91" height="91" fill="#28567A"/>
<rect x="909" y="1970" width="91" height="91" fill="#28567A"/>
<rect x="909" y="1242" width="91" height="91" fill="#28567A"/>
<rect x="909" y="2334" width="91" height="91" fill="#28567A"/>
<rect x="909" y="1606" width="91" height="91" fill="#28567A"/>
<rect x="909" y="2152" width="91" height="91" fill="#28567A"/>
<rect x="909" y="1424" width="91" height="91" fill="#28567A"/>
<rect x="909" y="1788" width="91" height="91" fill="#28567A"/>
<rect x="909" y="1333" width="91" height="91" fill="#28567A"/>
<rect x="909" y="2425" width="91" height="91" fill="#28567A"/>
<rect x="909" y="1697" width="91" height="91" fill="#28567A"/>
<rect x="909" y="2243" width="91" height="91" fill="#28567A"/>
<rect x="909" y="1515" width="91" height="91" fill="#28567A"/>
<rect x="909" y="1879" width="91" height="91" fill="#28567A"/>
<rect x="546" y="1970" width="91" height="91" fill="#28567A"/>
<rect x="546" y="1242" width="91" height="91" fill="#28567A"/>
<rect x="546" y="2334" width="91" height="91" fill="#28567A"/>
<rect x="546" y="1606" width="91" height="91" fill="#28567A"/>
<rect x="546" y="1424" width="91" height="91" fill="#28567A"/>
<rect x="546" y="1788" width="91" height="91" fill="#28567A"/>
<rect x="546" y="2061" width="91" height="91" fill="#28567A"/>
<rect x="546" y="1333" width="91" height="91" fill="#28567A"/>
<rect x="546" y="2425" width="91" height="91" fill="#28567A"/>
<rect x="546" y="1697" width="91" height="91" fill="#28567A"/>
<rect x="546" y="2243" width="91" height="91" fill="#28567A"/>
<rect x="546" y="1515" width="91" height="91" fill="#28567A"/>
<rect x="546" y="1879" width="91" height="91" fill="#28567A"/>
<rect x="1273" y="1970" width="91" height="91" fill="#28567A"/>
<rect x="1273" y="1242" width="91" height="91" fill="#28567A"/>
<rect x="1273" y="1606" width="91" height="91" fill="#28567A"/>
<rect x="1273" y="2152" width="91" height="91" fill="#28567A"/>
<rect x="1273" y="1424" width="91" height="91" fill="#28567A"/>
<rect x="1273" y="1788" width="91" height="91" fill="#28567A"/>
<rect x="1273" y="2061" width="91" height="91" fill="#28567A"/>
<rect x="1273" y="1333" width="91" height="91" fill="#28567A"/>
<rect x="1273" y="1697" width="91" height="91" fill="#28567A"/>
<rect x="1273" y="2243" width="91" height="91" fill="#28567A"/>
<rect x="1273" y="1515" width="91" height="91" fill="#28567A"/>
<rect x="1273" y="1879" width="91" height="91" fill="#28567A"/>
<rect x="1546" y="1970" width="91" height="91" fill="#2C5E86"/>
<rect x="1546" y="1242" width="91" height="91" fill="#28567A"/>
<rect x="1546" y="1606" width="91" height="91" fill="#28567A"/>
<rect x="1546" y="1424" width="91" height="91" fill="#28567A"/>
<rect x="1546" y="1788" width="91" height="91" fill="#28567A"/>
<rect x="1546" y="2061" width="91" height="91" fill="#28567A"/>
<rect x="1546" y="1333" width="91" height="91" fill="#2C5E86"/>
<rect x="1546" y="1697" width="91" height="91" fill="#2C5E86"/>
<rect x="1546" y="1515" width="91" height="91" fill="#28567A"/>
<rect x="1546" y="1879" width="91" height="91" fill="#28567A"/>
<rect x="91" y="1970" width="91" height="91" fill="#28567A"/>
<rect x="91" y="1242" width="91" height="91" fill="#28567A"/>
<rect x="91" y="2334" width="91" height="91" fill="#28567A"/>
<rect x="91" y="1606" width="91" height="91" fill="#2C5E86"/>
<rect x="91" y="1424" width="91" height="91" fill="#28567A"/>
<rect x="91" y="1788" width="91" height="91" fill="#28567A"/>
<rect x="91" y="2061" width="91" height="91" fill="#28567A"/>
<rect x="91" y="1333" width="91" height="91" fill="#28567A"/>
<rect x="91" y="2425" width="91" height="91" fill="#28567A"/>
<rect x="91" y="1697" width="91" height="91" fill="#28567A"/>
<rect x="91" y="2243" width="91" height="91" fill="#28567A"/>
<rect x="91" y="1515" width="91" height="91" fill="#28567A"/>
<rect x="91" y="1879" width="91" height="91" fill="#28567A"/>
<rect x="819" y="1970" width="91" height="91" fill="#28567A"/>
<rect x="819" y="1242" width="91" height="91" fill="#28567A"/>
<rect x="819" y="1606" width="91" height="91" fill="#28567A"/>
<rect x="819" y="1424" width="91" height="91" fill="#28567A"/>
<rect x="819" y="1788" width="91" height="91" fill="#28567A"/>
<rect x="819" y="2061" width="91" height="91" fill="#28567A"/>
<rect x="819" y="1333" width="91" height="91" fill="#28567A"/>
<rect x="819" y="1697" width="91" height="91" fill="#28567A"/>
<rect x="819" y="2243" width="91" height="91" fill="#28567A"/>
<rect x="819" y="1515" width="91" height="91" fill="#28567A"/>
<rect x="819" y="1879" width="91" height="91" fill="#28567A"/>
<rect x="455" y="1970" width="91" height="91" fill="#28567A"/>
<rect x="455" y="1242" width="91" height="91" fill="#28567A"/>
<rect x="455" y="2334" width="91" height="91" fill="#28567A"/>
<rect x="455" y="1606" width="91" height="91" fill="#28567A"/>
<rect x="455" y="2152" width="91" height="91" fill="#28567A"/>
<rect x="455" y="1424" width="91" height="91" fill="#28567A"/>
<rect x="455" y="1788" width="91" height="91" fill="#28567A"/>
<rect x="455" y="1333" width="91" height="91" fill="#28567A"/>
<rect x="455" y="1697" width="91" height="91" fill="#28567A"/>
<rect x="455" y="2243" width="91" height="91" fill="#28567A"/>
<rect x="455" y="1515" width="91" height="91" fill="#28567A"/>
<rect x="455" y="1879" width="91" height="91" fill="#28567A"/>
<rect x="1182" y="1970" width="91" height="91" fill="#28567A"/>
<rect x="1182" y="1242" width="91" height="91" fill="#28567A"/>
<rect x="1182" y="2334" width="91" height="91" fill="#28567A"/>
<rect x="1182" y="1606" width="91" height="91" fill="#28567A"/>
<rect x="1182" y="2152" width="91" height="91" fill="#28567A"/>
<rect x="1182" y="1424" width="91" height="91" fill="#28567A"/>
<rect x="1182" y="1788" width="91" height="91" fill="#28567A"/>
<rect x="1182" y="2061" width="91" height="91" fill="#28567A"/>
<rect x="1182" y="1333" width="91" height="91" fill="#28567A"/>
<rect x="1182" y="2425" width="91" height="91" fill="#28567A"/>
<rect x="1182" y="1697" width="91" height="91" fill="#28567A"/>
<rect x="1182" y="2243" width="91" height="91" fill="#28567A"/>
<rect x="1182" y="1515" width="91" height="91" fill="#28567A"/>
<rect x="1182" y="1879" width="91" height="91" fill="#28567A"/>
<rect x="1455" y="1970" width="91" height="91" fill="#28567A"/>
<rect x="1455" y="1242" width="91" height="91" fill="#2C5E86"/>
<rect x="1455" y="1606" width="91" height="91" fill="#2C5E86"/>
<rect x="1455" y="1424" width="91" height="91" fill="#28567A"/>
<rect x="1455" y="1788" width="91" height="91" fill="#28567A"/>
<rect x="1455" y="2061" width="91" height="91" fill="#28567A"/>
<rect x="1455" y="1333" width="91" height="91" fill="#28567A"/>
<rect x="1455" y="1697" width="91" height="91" fill="#28567A"/>
<rect x="1455" y="1515" width="91" height="91" fill="#28567A"/>
<rect x="273" y="1970" width="91" height="91" fill="#28567A"/>
<rect x="273" y="1242" width="91" height="91" fill="#28567A"/>
<rect x="273" y="2334" width="91" height="91" fill="#28567A"/>
<rect x="273" y="1606" width="91" height="91" fill="#28567A"/>
<rect x="273" y="2152" width="91" height="91" fill="#28567A"/>
<rect x="273" y="1424" width="91" height="91" fill="#28567A"/>
<rect x="273" y="1788" width="91" height="91" fill="#28567A"/>
<rect x="273" y="2061" width="91" height="91" fill="#28567A"/>
<rect x="273" y="1333" width="91" height="91" fill="#28567A"/>
<rect x="273" y="2425" width="91" height="91" fill="#28567A"/>
<rect x="273" y="1697" width="91" height="91" fill="#28567A"/>
<rect x="273" y="2243" width="91" height="91" fill="#28567A"/>
<rect x="273" y="1515" width="91" height="91" fill="#28567A"/>
<rect x="273" y="1879" width="91" height="91" fill="#28567A"/>
<rect x="1000" y="1970" width="91" height="91" fill="#28567A"/>
<rect x="1000" y="1242" width="91" height="91" fill="#28567A"/>
<rect x="1000" y="2334" width="91" height="91" fill="#28567A"/>
<rect x="1000" y="1606" width="91" height="91" fill="#28567A"/>
<rect x="1000" y="2152" width="91" height="91" fill="#28567A"/>
<rect x="1000" y="1424" width="91" height="91" fill="#28567A"/>
<rect x="1000" y="1788" width="91" height="91" fill="#28567A"/>
<rect x="1000" y="2061" width="91" height="91" fill="#28567A"/>
<rect x="1000" y="1333" width="91" height="91" fill="#28567A"/>
<rect x="1000" y="1697" width="91" height="91" fill="#28567A"/>
<rect x="1000" y="1515" width="91" height="91" fill="#28567A"/>
<rect x="1000" y="1879" width="91" height="91" fill="#28567A"/>
<rect x="637" y="1970" width="91" height="91" fill="#28567A"/>
<rect x="637" y="1242" width="91" height="91" fill="#28567A"/>
<rect x="637" y="2334" width="91" height="91" fill="#28567A"/>
<rect x="637" y="1606" width="91" height="91" fill="#28567A"/>
<rect x="637" y="2152" width="91" height="91" fill="#28567A"/>
<rect x="637" y="1424" width="91" height="91" fill="#28567A"/>
<rect x="637" y="1788" width="91" height="91" fill="#28567A"/>
<rect x="637" y="2061" width="91" height="91" fill="#28567A"/>
<rect x="637" y="1333" width="91" height="91" fill="#28567A"/>
<rect x="637" y="1697" width="91" height="91" fill="#28567A"/>
<rect x="637" y="2243" width="91" height="91" fill="#28567A"/>
<rect x="637" y="1515" width="91" height="91" fill="#28567A"/>
<rect x="637" y="1879" width="91" height="91" fill="#28567A"/>
<rect x="1364" y="1970" width="91" height="91" fill="#28567A"/>
<rect x="1364" y="1242" width="91" height="91" fill="#28567A"/>
<rect x="1364" y="1606" width="91" height="91" fill="#2C5E86"/>
<rect x="1364" y="2152" width="91" height="91" fill="#28567A"/>
<rect x="1364" y="1424" width="91" height="91" fill="#28567A"/>
<rect x="1364" y="1788" width="91" height="91" fill="#28567A"/>
<rect x="1298" y="1981" width="91" height="91" fill="#28567A"/>
<rect x="1364" y="1333" width="91" height="91" fill="#28567A"/>
<rect x="1364" y="1697" width="91" height="91" fill="#28567A"/>
<rect x="1364" y="1515" width="91" height="91" fill="#28567A"/>
<rect x="1364" y="1879" width="91" height="91" fill="#28567A"/>
<rect x="1637" y="1970" width="91" height="91" fill="#28567A"/>
<rect x="1637" y="1242" width="91" height="91" fill="#2C5E86"/>
<rect x="1637" y="1606" width="91" height="91" fill="#28567A"/>
<rect x="1637" y="1424" width="91" height="91" fill="#28567A"/>
<rect x="1637" y="1788" width="91" height="91" fill="#28567A"/>
<rect x="1637" y="1333" width="91" height="91" fill="#28567A"/>
<rect x="1637" y="1697" width="91" height="91" fill="#28567A"/>
<rect x="1637" y="1515" width="91" height="91" fill="#28567A"/>
<rect y="2152" width="91" height="91" fill="#2C5E86"/>
<rect y="2516" width="91" height="91" fill="#2C5E86"/>
<rect y="2061" width="91" height="91" fill="#2C5E86"/>
<rect y="2243" width="91" height="91" fill="#2C5E86"/>
<rect y="2607" width="91" height="91" fill="#2C5E86"/>
<rect x="728" y="2516" width="91" height="91" fill="#2C5E86"/>
<rect x="728" y="2425" width="91" height="91" fill="#2C5E86"/>
<rect x="728" y="2607" width="91" height="91" fill="#2C5E86"/>
<rect x="364" y="2334" width="91" height="91" fill="#2C5E86"/>
<rect x="364" y="2516" width="91" height="91" fill="#2C5E86"/>
<rect x="364" y="2607" width="91" height="91" fill="#2C5E86"/>
<rect x="1091" y="2334" width="91" height="91" fill="#2C5E86"/>
<rect x="1091" y="2516" width="91" height="91" fill="#2C5E86"/>
<rect x="1091" y="2607" width="91" height="91" fill="#2C5E86"/>
<rect x="182" y="2061" width="91" height="91" fill="#2C5E86"/>
<rect x="182" y="2607" width="91" height="91" fill="#2C5E86"/>
<rect x="909" y="2516" width="91" height="91" fill="#2C5E86"/>
<rect x="909" y="2061" width="91" height="91" fill="#2C5E86"/>
<rect x="909" y="2607" width="91" height="91" fill="#2C5E86"/>
<rect x="546" y="2152" width="91" height="91" fill="#2C5E86"/>
<rect x="546" y="2516" width="91" height="91" fill="#2C5E86"/>
<rect x="546" y="2607" width="91" height="91" fill="#2C5E86"/>
<rect x="1273" y="2334" width="91" height="91" fill="#2C5E86"/>
<rect x="1273" y="2516" width="91" height="91" fill="#2C5E86"/>
<rect x="1273" y="2425" width="91" height="91" fill="#2C5E86"/>
<rect x="1273" y="2607" width="91" height="91" fill="#2C5E86"/>
<rect x="1546" y="2334" width="91" height="91" fill="#2C5E86"/>
<rect x="1546" y="2152" width="91" height="91" fill="#2C5E86"/>
<rect x="1546" y="2516" width="91" height="91" fill="#2C5E86"/>
<rect x="1546" y="2425" width="91" height="91" fill="#2C5E86"/>
<rect x="1546" y="2243" width="91" height="91" fill="#2C5E86"/>
<rect x="1546" y="2607" width="91" height="91" fill="#2C5E86"/>
<rect x="91" y="2152" width="91" height="91" fill="#2C5E86"/>
<rect x="91" y="2516" width="91" height="91" fill="#2C5E86"/>
<rect x="91" y="2607" width="91" height="91" fill="#2C5E86"/>
<rect x="819" y="2334" width="91" height="91" fill="#2C5E86"/>
<rect x="819" y="2152" width="91" height="91" fill="#2C5E86"/>
<rect x="819" y="2516" width="91" height="91" fill="#2C5E86"/>
<rect x="819" y="2425" width="91" height="91" fill="#2C5E86"/>
<rect x="819" y="2607" width="91" height="91" fill="#2C5E86"/>
<rect x="455" y="2516" width="91" height="91" fill="#2C5E86"/>
<rect x="455" y="2061" width="91" height="91" fill="#2C5E86"/>
<rect x="455" y="2425" width="91" height="91" fill="#2C5E86"/>
<rect x="455" y="2607" width="91" height="91" fill="#2C5E86"/>
<rect x="1182" y="2516" width="91" height="91" fill="#2C5E86"/>
<rect x="1182" y="2607" width="91" height="91" fill="#2C5E86"/>
<rect x="1455" y="2334" width="91" height="91" fill="#2C5E86"/>
<rect x="1455" y="2152" width="91" height="91" fill="#2C5E86"/>
<rect x="1455" y="2516" width="91" height="91" fill="#2C5E86"/>
<rect x="1455" y="2425" width="91" height="91" fill="#2C5E86"/>
<rect x="1455" y="2243" width="91" height="91" fill="#28567A"/>
<rect x="1455" y="2607" width="91" height="91" fill="#2C5E86"/>
<rect x="273" y="2516" width="91" height="91" fill="#2C5E86"/>
<rect x="273" y="2607" width="91" height="91" fill="#2C5E86"/>
<rect x="1000" y="2516" width="91" height="91" fill="#2C5E86"/>
<rect x="1000" y="2425" width="91" height="91" fill="#2C5E86"/>
<rect x="1000" y="2243" width="91" height="91" fill="#2C5E86"/>
<rect x="1000" y="2607" width="91" height="91" fill="#2C5E86"/>
<rect x="637" y="2516" width="91" height="91" fill="#2C5E86"/>
<rect x="637" y="2425" width="91" height="91" fill="#2C5E86"/>
<rect x="637" y="2607" width="91" height="91" fill="#2C5E86"/>
<rect x="1364" y="2334" width="91" height="91" fill="#2C5E86"/>
<rect x="1364" y="2516" width="91" height="91" fill="#2C5E86"/>
<rect x="1364" y="2425" width="91" height="91" fill="#2C5E86"/>
<rect x="1364" y="2243" width="91" height="91" fill="#2C5E86"/>
<rect x="1364" y="2607" width="91" height="91" fill="#2C5E86"/>
<rect x="1637" y="2334" width="91" height="91" fill="#2C5E86"/>
<rect x="1637" y="2152" width="91" height="91" fill="#2C5E86"/>
<rect x="1637" y="2516" width="91" height="91" fill="#2C5E86"/>
<rect x="1637" y="2061" width="91" height="91" fill="#2C5E86"/>
<rect x="1637" y="2425" width="91" height="91" fill="#2C5E86"/>
<rect x="1637" y="2243" width="91" height="91" fill="#2C5E86"/>
<rect x="1637" y="2607" width="91" height="91" fill="#2C5E86"/>
<rect x="1637" y="1879" width="91" height="91" fill="#28567A"/>
<defs>
<linearGradient id="paint0_linear_639_106" x1="792" y1="139" x2="1462" y2="1019" gradientUnits="userSpaceOnUse">
<stop stop-color="#2C5E86"/>
<stop offset="1" stop-color="#1F435F"/>
</linearGradient>
</defs>
</svg>
