<svg width="76" height="121" viewBox="0 0 76 121" fill="none" xmlns="http://www.w3.org/2000/svg">
<g clip-path="url(#clip0_610_3714)">
<path d="M41.3861 0V8.42125H47.2554V17.2857H52.9743V24.9683H58.8436V32.7985H64.7129V40.6288C64.8227 40.6687 64.8935 40.4811 64.9386 40.4811H70.1307V47.8681H76V55.8462H69.9802V60.8694H64.4119V65.3016H58.6931V70.177H52.8238V74.3138H47.1049V78.746H41.2356V83.7692H35.3663V78.746H29.196V74.4615H23.4772C23.8143 72.9708 23.5269 71.393 23.6277 69.8816H17.7584V65.3016H11.7386V61.091C11.7386 61.0466 11.9297 60.9772 11.8891 60.8694H6.0198V55.6984C5.90994 55.6585 5.83921 55.8462 5.79406 55.8462H0V47.8681H5.86931V40.4811H11.5129C11.558 40.4811 11.6288 40.6687 11.7386 40.6288V32.7985H17.6079V24.9683H23.1762V17.2857H28.8951V8.42125H34.9149C34.9555 8.31339 34.7644 8.24396 34.7644 8.19963V0H41.3861Z" fill="#5CB75A"/>
<path d="M70.1307 71.2112C70.1488 74.2621 70.1172 77.3203 70.1307 80.3712H64.7129V88.4231C64.7129 88.9047 63.1432 88.4851 62.8332 88.4866C61.4742 88.494 60.1123 88.8264 58.6931 88.497V96.8443C58.6931 96.868 58.9534 97.2137 58.6178 97.2137H52.9743V105.635H47.2555V114.352H41.3862V121H34.9149V114.352H29.0456V105.783H23.402C23.3854 105.783 23.1763 105.577 23.1763 105.561V97.2137H17.4574V88.497L11.5881 88.6447V80.3712H5.86932V71.359H0.150513V65.7448C0.260374 65.7049 0.331107 65.8926 0.376255 65.8926H5.64358C5.66766 65.8926 6.01982 65.637 6.01982 65.9664V71.2112H11.8891V75.4957H17.7584V79.7802H23.4772V84.2125H29.1961V88.497H35.0654V92.9292H41.3862V88.497H47.105V84.2125H52.9743V79.7802H58.6931V75.4957H64.4119V71.2112C66.3157 71.2349 68.2285 71.1802 70.1307 71.2112C70.1202 69.4384 70.1443 67.6655 69.9802 65.8926H75.8495V71.359C74.1685 71.3294 72.4799 71.3974 70.7974 71.3649C70.513 71.359 70.2376 71.2127 70.1307 71.2112Z" fill="#5CB75A"/>
<path d="M17.3069 88.7925V97.066H17.1565V88.9402H11.5881V88.7925H17.3069Z" fill="#5CB75A"/>
<path d="M28.895 105.93V114.352H28.7445V106.078H23.3267V105.93H28.895Z" fill="#5CB75A"/>
<path d="M34.6138 8.2735H29.0455V8.12576H34.4634V0H34.6138V8.2735Z" fill="#5CB75A"/>
<path d="M23.0257 97.3615V105.635H22.8752V97.5092H17.6079V97.3615H23.0257Z" fill="#5CB75A"/>
</g>
<defs>
<clipPath id="clip0_610_3714">
<rect width="76" height="121" fill="white"/>
</clipPath>
</defs>
</svg>
